<?xml version="1.0" encoding="utf-8"?>
<!-- Generator: Adobe Illustrator 26.5.0, SVG Export Plug-In . SVG Version: 6.00 Build 0)  -->
<svg version="1.1" id="Layer_1" xmlns="http://www.w3.org/2000/svg" xmlns:xlink="http://www.w3.org/1999/xlink" x="0px" y="0px"
	 viewBox="0 0 512 512" style="enable-background:new 0 0 512 512;" xml:space="preserve">
<style type="text/css">
	.st0{fill:#FF8200;}
	.st1{fill:#FFFFFF;}
</style>
<g id="XMLID_1_">
	<path id="XMLID_3_" class="st0" d="M454.07,292.45c7.72,0,15.43-2.67,19.36-8.14c0,2.24,1.12,5.47,1.54,6.73h11.08
		c-0.28-3.09-0.7-6.45-0.7-9.54v-59.9h-11.5v26.79c-3.37-3.93-11.22-6.87-17.53-6.87c-18.8-0.14-28.2,12.48-28.2,25.39
		C427.98,279.27,436.25,292.45,454.07,292.45z"/>
	<path id="XMLID_4_" class="st0" d="M253.9,241.39L253.9,241.39c-0.42,0-29.32,0.28-31.42,25.53c-1.4,15.01,11.64,25.39,31.42,25.39
		c19.64,0,31.42-10.38,31.42-25.39C285.32,252.33,272.27,242.23,253.9,241.39z"/>
	<rect id="XMLID_5_" x="289.67" y="221.61" class="st0" width="13.61" height="69.44"/>
	<path id="XMLID_6_" class="st0" d="M381.26,262.01c0.28-7.01,11.92-12.06,17.67-12.06c8.84,0,10.8,6.87,11.08,12.06v28.9h11.36
		v-31.28c0-1.68-0.14-4.77-1.12-7.72c-2.24-7.01-13.47-11.64-19.5-11.64c-9.12,0-15.43,3.93-19.22,8.42l-0.14-0.14v-7.29h-11.78
		v49.8h11.64V262.01L381.26,262.01z"/>
	<path id="XMLID_7_" class="st0" d="M350.4,284.6c0,1.96,0.28,4.35,0.7,6.31h11.22c-0.14-1.4-0.7-2.81-0.84-5.19v-26.23
		c0-14.59-12.2-18.1-24.27-18.1c-6.59,0-12.91,0.7-17.96,2.95c-4.77,2.24-8,6.03-8.14,12.06h12.76c-0.28-2.24,4.07-7.01,12.76-7.01
		c6.45,0,12.48,2.81,12.48,6.03v4.21v0.28c-7.15-0.14-20.62,0-27.77,2.67c-10.94,3.65-12.91,11.78-13.05,15.15
		c0.14,9.4,8.56,14.59,19.92,14.59C336.24,292.45,346.34,290.21,350.4,284.6z"/>
	<path id="XMLID_8_" class="st0" d="M170.15,261.31h22.86c6.17,0.14,10.24,7.15,10.66,11.08c0.84,6.17,1.68,12.48,3.23,18.52h14.17
		c-3.51-3.79-4.21-11.92-5.05-16.41c-1.54-9.54-0.28-14.73-9.54-16.41v-0.14c10.8-1.82,12.76-9.26,12.76-18.24
		c0-14.17-14.17-18.1-29.04-18.24h-33.81v69.44h13.75V261.31z"/>
	<path id="XMLID_9_" class="st0" d="M0,222.17h124.98c13.05,0.56,22.44,7.86,23.29,22.16c-0.42,13.05-8.7,21.46-23.29,22.02H49.1
		v4.07h98.33V278H41.66v-19.08h83.18c10.24-0.28,15.15-5.05,15.85-14.59c-0.98-10.1-6.73-14.31-15.85-14.73H7.57v60.88H0V222.17z"/>
	<path id="XMLID_10_" class="st0" d="M20.9,278.56v11.22h-7.57V234.8h112.22v19.36H44.47c-9.68,0.42-18.24,4.35-18.38,15.85
		c1.82,9.68,8.56,12.91,18.38,13.19h102.4v7.57H44.33C35.35,290.35,25.25,287.4,20.9,278.56z"/>
	<path id="XMLID_11_" class="st1" d="M20.9,259.21c4.63-8.98,14.03-12.2,23.43-12.48h73.78v-4.35H20.9V259.21z"/>
	<path id="XMLID_12_" class="st0" d="M512,226.94c0-4.07-3.23-7.29-7.15-7.29c-4.07,0-7.43,3.23-7.29,7.29
		c0,3.93,3.23,7.29,7.29,7.29C508.77,234.1,512,230.87,512,226.94z"/>
	<path id="XMLID_13_" class="st1" d="M456.73,249.53c9.82,0,16.97,10.8,17.11,17.39c-0.14,6.73-6.45,16.69-16.27,16.69
		c-11.64,0-17.96-9.26-18.1-16.69C439.48,259.49,445.23,249.53,456.73,249.53z"/>
	<path id="XMLID_14_" class="st1" d="M253.9,284.17c-11.08,0-18.24-9.68-18.24-17.25c0-7.86,6.59-17.11,18.24-17.11v-0.14v0.14
		c11.5,0,18.1,9.26,18.1,17.11C271.99,274.5,264.84,284.32,253.9,284.17z"/>
	<path id="XMLID_15_" class="st1" d="M349,269.73c-0.28,9.96-7.01,13.61-17.11,13.61c-5.05,0-10.1-0.7-9.82-7.29
		c0-5.05,9.54-9.4,26.93-7.57V269.73L349,269.73z"/>
	<path id="XMLID_16_" class="st1" d="M170.15,231.71h23c8.28,0.14,13.05,4.07,13.05,10.24c0,6.17-4.77,9.54-13.05,9.54h-23V231.71z"
		/>
	<path id="XMLID_17_" class="st1" d="M511.16,226.94c0,3.51-2.81,6.45-6.31,6.45c-3.65-0.14-6.59-2.95-6.45-6.45
		c-0.14-3.65,2.81-6.45,6.31-6.45C508.35,220.35,511.16,223.3,511.16,226.94z"/>
	<path id="XMLID_18_" class="st0" d="M502.04,230.73h0.98v-3.51h2.67c1.68,0,1.26,1.4,1.4,2.52l0.14,0.98h1.4
		c-0.56-0.7-0.28-0.98-0.56-1.96c0-1.4-0.14-1.54-0.84-1.96c0.7-0.7,0.98-0.98,0.98-1.96c-0.14-1.82-1.26-2.1-2.52-2.1h-3.65
		L502.04,230.73L502.04,230.73z"/>
	<path id="XMLID_19_" class="st1" d="M505.69,223.58c0.56,0,1.54,0.14,1.54,1.54c-0.14,1.12-0.84,1.26-1.54,1.4h-2.67v-2.81h2.67
		V223.58z"/>
</g>
</svg>
